{"title":"Sunlight Jr 2013 HDRiP XViD UNiQUE","uid":9019037,"size":1454944362,"categoryP":"video","categoryS":"movies","magnet":"?xt=urn:btih:1223e609a0a807615e84525c894b48b816bb6425&amp;dn=Sunlight+Jr+2013+HDRiP+XViD+UNiQUE&amp;tr=udp%3A%2F%2Ftracker.openbittorrent.com%3A80&amp;tr=udp%3A%2F%2Fopen.demonii.com%3A1337&amp;tr=udp%3A%2F%2Ftracker.coppersurfer.tk%3A6969&amp;tr=udp%3A%2F%2Fexodus.desync.com%3A6969","seeders":1,"leechers":0,"uploader":"scenetime55","files":5,"time":1381257252,"description":"SceneTime,,Com\n SceneTime,,Com\n\n                                                         \n- Latest Releases\n- Super Fast Speeds\n- Good Community\n- Competitions with prizes (yay)\n- Love for the Scene\n\n\nCredit to EVERYONE for sharing and seeding back\nespecially to SceneTime where i get all my\ndownloads.\n\n\n\nFormat                                   : AVI\nFormat/Info                              : Audio Video Interleave\nFile size                                : 1.35 GiB\nDuration                                 : 1h 34mn\nOverall bit rate                         : 2 031 Kbps\nWriting application                      : VirtualDubMod 1.5.10.2 (build 2540/release)\nWriting library                          : VirtualDubMod build 2540/release\n\nVideo\nID                                       : 0\nFormat                                   : MPEG-4 Visual\nFormat profile                           : Advanced Simple@L5\nFormat settings, BVOP                    : 2\nFormat settings, QPel                    : No\nFormat settings, GMC                     : No warppoints\nFormat settings, Matrix                  : Default (H.263)\nMuxing mode                              : Packed bitstream\nCodec ID                                 : XVID\nCodec ID/Hint                            : XviD\nDuration                                 : 1h 34mn\nBit rate                                 : 1 637 Kbps\nWidth                                    : 720 pixels\nHeight                                   : 298 pixels\nDisplay aspect ratio                     : 2.40:1\nFrame rate                               : 23.976 fps\nColor space                              : YUV\nChroma subsampling                       : 4:2:0\nBit depth                                : 8 bits\nScan type                                : Progressive\nCompression mode                         : Lossy\nBits/(Pixel*Frame)                       : 0.318\nStream size                              : 1.09 GiB (81%)\nWriting library                          : XviD 64\n\nAudio\nID                                       : 1\nFormat                                   : AC-3\nFormat/Info                              : Audio Coding 3\nMode extension                           : CM (complete main)\nFormat settings, Endianness              : Big\nCodec ID                                 : 2000\nDuration                                 : 1h 34mn\nBit rate mode                            : Constant\nBit rate                                 : 384 Kbps\nChannel(s)                               : 6 channels\nChannel positions                        : Front: L C R, Side: L R, LFE\nSampling rate                            : 48.0 KHz\nBit depth                                : 16 bits\nCompression mode                         : Lossy\nStream size                              : 261 MiB (19%)\nAlignment                                : Split accross interleaves\nInterleave, duration                     : 42 ms (1.00 video frame)\nInterleave, preload duration             : 500 ms\n &lt;a href=&quot;\nhttp://www.imdb.com/title/tt1517249/&quot; rel=&quot;nofollow&quot; target=&quot;_NEW&quot;&gt;\nhttp://www.imdb.com/title/tt1517249/&lt;/a&gt;\n","torrent":{"xt":"urn:btih:1223e609a0a807615e84525c894b48b816bb6425","amp;dn":"Sunlight+Jr+2013+HDRiP+XViD+UNiQUE","amp;tr":["udp%3A%2F%2Ftracker.openbittorrent.com%3A80","udp%3A%2F%2Fopen.demonii.com%3A1337","udp%3A%2F%2Ftracker.coppersurfer.tk%3A6969","udp%3A%2F%2Fexodus.desync.com%3A6969"],"infoHash":"1223e609a0a807615e84525c894b48b816bb6425","infoHashBuffer":{"type":"Buffer","data":[18,35,230,9,160,168,7,97,94,132,82,92,137,75,72,184,22,187,100,37]},"announce":[],"urlList":[]}}